<?xml version="1.0" standalone="no"?>
<!DOCTYPE svg PUBLIC "-//W3C//DTD SVG 20010904//EN"
 "http://www.w3.org/TR/2001/REC-SVG-20010904/DTD/svg10.dtd">
<svg version="1.0" xmlns="http://www.w3.org/2000/svg"
 width="500.000000pt" height="500.000000pt" viewBox="0 0 500.000000 500.000000"
 preserveAspectRatio="xMidYMid meet">
<metadata>
Created by potrace 1.11, written by Peter Selinger 2001-2013
</metadata>
<g transform="translate(0.000000,500.000000) scale(0.100000,-0.100000)"
fill="#000000" stroke="none">
<path d="M0 2500 l0 -2500 2500 0 2500 0 0 2500 0 2500 -2500 0 -2500 0 0
-2500z m3019 1362 c231 -515 295 -658 766 -1707 229 -511 455 -1015 502 -1120
47 -104 93 -207 103 -228 l18 -37 -351 0 -352 0 -141 313 c-77 171 -347 772
-600 1334 -252 563 -462 1023 -466 1023 -5 0 -8 -4 -8 -9 0 -5 -67 -157 -148
-338 -82 -180 -350 -777 -597 -1325 l-449 -998 -348 0 c-191 0 -348 2 -348 5
0 3 127 288 281 633 155 345 301 670 324 722 119 267 919 2049 931 2073 l15
27 352 0 352 0 164 -368z"/>
</g>
</svg>
